<svg xmlns="http://www.w3.org/2000/svg" xmlns:xlink="http://www.w3.org/1999/xlink" width="368" zoomAndPan="magnify" viewBox="0 0 276 57.749997" height="77" preserveAspectRatio="xMidYMid meet" version="1.2"><defs><clipPath id="a878e61689"><path d="M 3.289062 4.117188 L 47 4.117188 L 47 53.402344 L 3.289062 53.402344 Z M 3.289062 4.117188 "/></clipPath></defs><g id="f6788525cc"><g clip-rule="nonzero" clip-path="url(#a878e61689)"><path style=" stroke:none;fill-rule:evenodd;fill:#898792;fill-opacity:1;" d="M 46.941406 31.609375 L 46.941406 10.726562 C 46.941406 10.226562 46.695312 9.757812 46.285156 9.46875 C 39.269531 4.542969 32.246094 4.097656 25.191406 4.105469 C 18.179688 4.113281 11.15625 4.558594 4.105469 9.464844 C 3.691406 9.75 3.445312 10.222656 3.445312 10.726562 C 3.445312 10.726562 3.445312 21.226562 3.445312 31.609375 C 3.445312 43.621094 13.183594 53.355469 25.191406 53.355469 L 25.191406 51.820312 C 25.191406 53.355469 25.191406 53.355469 25.191406 53.355469 C 37.203125 53.355469 46.941406 43.621094 46.941406 31.609375 Z M 43.871094 11.539062 C 37.667969 7.453125 31.433594 7.167969 25.195312 7.175781 C 18.988281 7.183594 12.757812 7.472656 6.515625 11.542969 L 6.515625 31.609375 C 6.515625 41.925781 14.878906 50.289062 25.191406 50.289062 C 25.191406 50.289062 25.191406 51.820312 25.191406 51.820312 L 25.191406 50.289062 C 35.507812 50.289062 43.871094 41.925781 43.871094 31.609375 Z M 43.871094 11.539062 "/></g><path style=" stroke:none;fill-rule:evenodd;fill:#898792;fill-opacity:1;" d="M 34.8125 27.601562 C 34.8125 26.753906 34.125 26.066406 33.277344 26.066406 L 17.109375 26.066406 C 16.261719 26.066406 15.574219 26.753906 15.574219 27.601562 L 15.574219 38.894531 C 15.574219 39.742188 16.261719 40.425781 17.109375 40.425781 L 33.277344 40.425781 C 34.125 40.425781 34.8125 39.742188 34.8125 38.894531 Z M 34.8125 27.601562 "/><path style=" stroke:none;fill-rule:evenodd;fill:#898792;fill-opacity:1;" d="M 32.792969 24.632812 C 32.792969 22.617188 31.992188 20.683594 30.566406 19.261719 C 29.140625 17.835938 27.207031 17.035156 25.191406 17.035156 L 25.191406 18.570312 C 25.191406 17.035156 25.191406 17.035156 25.191406 17.035156 C 23.179688 17.035156 21.246094 17.835938 19.820312 19.261719 C 18.394531 20.683594 17.59375 22.617188 17.59375 24.632812 C 17.59375 26.273438 17.59375 27.601562 17.59375 27.601562 C 17.59375 28.449219 18.28125 29.136719 19.128906 29.136719 L 31.257812 29.136719 C 32.105469 29.136719 32.792969 28.449219 32.792969 27.601562 Z M 29.722656 26.066406 L 29.722656 24.632812 C 29.722656 23.429688 29.246094 22.277344 28.394531 21.429688 C 27.546875 20.582031 26.394531 20.101562 25.191406 20.101562 L 25.191406 18.570312 L 25.191406 20.101562 C 23.992188 20.101562 22.839844 20.582031 21.992188 21.429688 C 21.140625 22.277344 20.664062 23.429688 20.664062 24.632812 L 20.664062 26.066406 Z M 29.722656 26.066406 "/><g style="fill:#898792;fill-opacity:1;"><g transform="translate(63.307059, 55.650992)"><path style="stroke:none" d="M 0.71875 -20.078125 L 5.609375 -20.796875 L 7.515625 -20.796875 L 7.515625 0 L 5.28125 0 L 5.28125 -18.859375 L 0.984375 -18.234375 Z M 0.71875 -20.078125 "/></g></g><g style="fill:#898792;fill-opacity:1;"><g transform="translate(72.631245, 55.650992)"><path style="stroke:none" d="M 10.640625 0.296875 C 8.847656 0.296875 7.300781 -0.171875 6 -1.109375 C 4.707031 -2.054688 3.707031 -3.332031 3 -4.9375 C 2.300781 -6.550781 1.953125 -8.378906 1.953125 -10.421875 C 1.953125 -12.398438 2.296875 -14.191406 2.984375 -15.796875 C 3.671875 -17.398438 4.660156 -18.679688 5.953125 -19.640625 C 7.253906 -20.609375 8.820312 -21.09375 10.65625 -21.09375 C 12.457031 -21.09375 14.003906 -20.625 15.296875 -19.6875 C 16.585938 -18.757812 17.582031 -17.492188 18.28125 -15.890625 C 18.988281 -14.285156 19.34375 -12.453125 19.34375 -10.390625 C 19.34375 -8.410156 19 -6.609375 18.3125 -4.984375 C 17.625 -3.359375 16.628906 -2.070312 15.328125 -1.125 C 14.035156 -0.175781 12.472656 0.296875 10.640625 0.296875 Z M 10.65625 -1.546875 C 12.050781 -1.546875 13.226562 -1.953125 14.1875 -2.765625 C 15.144531 -3.578125 15.867188 -4.648438 16.359375 -5.984375 C 16.859375 -7.316406 17.109375 -8.773438 17.109375 -10.359375 C 17.109375 -12.066406 16.84375 -13.582031 16.3125 -14.90625 C 15.789062 -16.238281 15.046875 -17.289062 14.078125 -18.0625 C 13.109375 -18.832031 11.960938 -19.21875 10.640625 -19.21875 C 9.242188 -19.21875 8.066406 -18.816406 7.109375 -18.015625 C 6.148438 -17.210938 5.421875 -16.144531 4.921875 -14.8125 C 4.429688 -13.488281 4.1875 -12.023438 4.1875 -10.421875 C 4.1875 -8.742188 4.445312 -7.226562 4.96875 -5.875 C 5.5 -4.53125 6.25 -3.472656 7.21875 -2.703125 C 8.1875 -1.929688 9.332031 -1.546875 10.65625 -1.546875 Z M 10.65625 -1.546875 "/></g></g><g style="fill:#898792;fill-opacity:1;"><g transform="translate(92.824041, 55.650992)"><path style="stroke:none" d="M 10.640625 0.296875 C 8.847656 0.296875 7.300781 -0.171875 6 -1.109375 C 4.707031 -2.054688 3.707031 -3.332031 3 -4.9375 C 2.300781 -6.550781 1.953125 -8.378906 1.953125 -10.421875 C 1.953125 -12.398438 2.296875 -14.191406 2.984375 -15.796875 C 3.671875 -17.398438 4.660156 -18.679688 5.953125 -19.640625 C 7.253906 -20.609375 8.820312 -21.09375 10.65625 -21.09375 C 12.457031 -21.09375 14.003906 -20.625 15.296875 -19.6875 C 16.585938 -18.757812 17.582031 -17.492188 18.28125 -15.890625 C 18.988281 -14.285156 19.34375 -12.453125 19.34375 -10.390625 C 19.34375 -8.410156 19 -6.609375 18.3125 -4.984375 C 17.625 -3.359375 16.628906 -2.070312 15.328125 -1.125 C 14.035156 -0.175781 12.472656 0.296875 10.640625 0.296875 Z M 10.65625 -1.546875 C 12.050781 -1.546875 13.226562 -1.953125 14.1875 -2.765625 C 15.144531 -3.578125 15.867188 -4.648438 16.359375 -5.984375 C 16.859375 -7.316406 17.109375 -8.773438 17.109375 -10.359375 C 17.109375 -12.066406 16.84375 -13.582031 16.3125 -14.90625 C 15.789062 -16.238281 15.046875 -17.289062 14.078125 -18.0625 C 13.109375 -18.832031 11.960938 -19.21875 10.640625 -19.21875 C 9.242188 -19.21875 8.066406 -18.816406 7.109375 -18.015625 C 6.148438 -17.210938 5.421875 -16.144531 4.921875 -14.8125 C 4.429688 -13.488281 4.1875 -12.023438 4.1875 -10.421875 C 4.1875 -8.742188 4.445312 -7.226562 4.96875 -5.875 C 5.5 -4.53125 6.25 -3.472656 7.21875 -2.703125 C 8.1875 -1.929688 9.332031 -1.546875 10.65625 -1.546875 Z M 10.65625 -1.546875 "/></g></g><g style="fill:#898792;fill-opacity:1;"><g transform="translate(113.016836, 55.650992)"><path style="stroke:none" d="M 5.015625 -12.0625 C 3.753906 -12.0625 2.742188 -12.503906 1.984375 -13.390625 C 1.234375 -14.285156 0.859375 -15.425781 0.859375 -16.8125 C 0.859375 -18.15625 1.226562 -19.269531 1.96875 -20.15625 C 2.71875 -21.050781 3.734375 -21.5 5.015625 -21.5 C 6.285156 -21.5 7.289062 -21.050781 8.03125 -20.15625 C 8.78125 -19.269531 9.15625 -18.15625 9.15625 -16.8125 C 9.15625 -15.46875 8.785156 -14.335938 8.046875 -13.421875 C 7.316406 -12.515625 6.304688 -12.0625 5.015625 -12.0625 Z M 7.15625 0 L 5.203125 0 L 17.640625 -20.796875 L 19.609375 -20.796875 Z M 5.015625 -13.453125 C 5.785156 -13.453125 6.378906 -13.785156 6.796875 -14.453125 C 7.210938 -15.117188 7.421875 -15.90625 7.421875 -16.8125 C 7.421875 -17.738281 7.207031 -18.519531 6.78125 -19.15625 C 6.363281 -19.789062 5.773438 -20.109375 5.015625 -20.109375 C 4.242188 -20.109375 3.648438 -19.785156 3.234375 -19.140625 C 2.816406 -18.492188 2.609375 -17.71875 2.609375 -16.8125 C 2.609375 -15.84375 2.828125 -15.039062 3.265625 -14.40625 C 3.703125 -13.769531 4.285156 -13.453125 5.015625 -13.453125 Z M 19.78125 0.15625 C 18.507812 0.15625 17.5 -0.289062 16.75 -1.1875 C 16 -2.082031 15.625 -3.222656 15.625 -4.609375 C 15.625 -5.953125 15.992188 -7.066406 16.734375 -7.953125 C 17.484375 -8.847656 18.5 -9.296875 19.78125 -9.296875 C 21.050781 -9.296875 22.054688 -8.847656 22.796875 -7.953125 C 23.535156 -7.066406 23.90625 -5.953125 23.90625 -4.609375 C 23.90625 -3.253906 23.539062 -2.117188 22.8125 -1.203125 C 22.082031 -0.296875 21.070312 0.15625 19.78125 0.15625 Z M 19.78125 -1.25 C 20.550781 -1.25 21.144531 -1.578125 21.5625 -2.234375 C 21.976562 -2.898438 22.1875 -3.691406 22.1875 -4.609375 C 22.1875 -5.535156 21.972656 -6.316406 21.546875 -6.953125 C 21.117188 -7.585938 20.53125 -7.90625 19.78125 -7.90625 C 19.007812 -7.90625 18.414062 -7.582031 18 -6.9375 C 17.582031 -6.289062 17.375 -5.515625 17.375 -4.609375 C 17.375 -3.640625 17.59375 -2.835938 18.03125 -2.203125 C 18.46875 -1.566406 19.050781 -1.25 19.78125 -1.25 Z M 19.78125 -1.25 "/></g></g><g style="fill:#898792;fill-opacity:1;"><g transform="translate(136.684021, 55.650992)"><path style="stroke:none" d=""/></g></g><g style="fill:#898792;fill-opacity:1;"><g transform="translate(144.048296, 55.650992)"><path style="stroke:none" d="M 9.71875 0.296875 C 8.164062 0.296875 6.664062 0.140625 5.21875 -0.171875 C 3.78125 -0.492188 2.503906 -0.972656 1.390625 -1.609375 L 1.65625 -3.71875 C 2.851562 -3.082031 4.175781 -2.609375 5.625 -2.296875 C 7.082031 -1.992188 8.445312 -1.84375 9.71875 -1.84375 C 10.78125 -1.84375 11.765625 -1.953125 12.671875 -2.171875 C 13.585938 -2.390625 14.320312 -2.757812 14.875 -3.28125 C 15.4375 -3.800781 15.71875 -4.53125 15.71875 -5.46875 C 15.71875 -6.375 15.472656 -7.078125 14.984375 -7.578125 C 14.492188 -8.085938 13.796875 -8.492188 12.890625 -8.796875 C 11.992188 -9.109375 10.914062 -9.40625 9.65625 -9.6875 C 7.195312 -10.15625 5.320312 -10.804688 4.03125 -11.640625 C 2.75 -12.472656 2.109375 -13.703125 2.109375 -15.328125 C 2.109375 -16.628906 2.46875 -17.707031 3.1875 -18.5625 C 3.914062 -19.414062 4.882812 -20.050781 6.09375 -20.46875 C 7.300781 -20.882812 8.609375 -21.09375 10.015625 -21.09375 C 12.460938 -21.09375 14.773438 -20.578125 16.953125 -19.546875 L 16.546875 -17.375 C 15.421875 -17.925781 14.320312 -18.332031 13.25 -18.59375 C 12.175781 -18.851562 11.109375 -18.984375 10.046875 -18.984375 C 9.035156 -18.984375 8.113281 -18.875 7.28125 -18.65625 C 6.445312 -18.4375 5.78125 -18.0625 5.28125 -17.53125 C 4.789062 -17.007812 4.546875 -16.304688 4.546875 -15.421875 C 4.546875 -14.347656 5.015625 -13.566406 5.953125 -13.078125 C 6.890625 -12.597656 8.332031 -12.140625 10.28125 -11.703125 C 11.9375 -11.367188 13.347656 -10.957031 14.515625 -10.46875 C 15.691406 -9.988281 16.59375 -9.351562 17.21875 -8.5625 C 17.84375 -7.78125 18.15625 -6.769531 18.15625 -5.53125 C 18.15625 -4.195312 17.757812 -3.101562 16.96875 -2.25 C 16.1875 -1.40625 15.148438 -0.769531 13.859375 -0.34375 C 12.578125 0.0820312 11.195312 0.296875 9.71875 0.296875 Z M 9.71875 0.296875 "/></g></g><g style="fill:#898792;fill-opacity:1;"><g transform="translate(162.548446, 55.650992)"><path style="stroke:none" d="M 5.171875 -9.625 L 5.171875 -2.046875 L 18.921875 -2.046875 L 18.921875 0 L 2.90625 0 L 2.90625 -20.796875 L 18.625 -20.796875 L 18.625 -18.75 L 5.171875 -18.75 L 5.171875 -11.671875 L 17.046875 -11.671875 L 17.046875 -9.625 Z M 5.171875 -9.625 "/></g></g><g style="fill:#898792;fill-opacity:1;"><g transform="translate(181.464287, 55.650992)"><path style="stroke:none" d="M 15.625 -8.640625 L 15.625 -10.71875 L 21.234375 -10.71875 L 21.203125 -2.25 C 19.921875 -1.476562 18.550781 -0.859375 17.09375 -0.390625 C 15.632812 0.0664062 14.175781 0.296875 12.71875 0.296875 C 10.675781 0.296875 8.84375 -0.144531 7.21875 -1.03125 C 5.59375 -1.925781 4.304688 -3.171875 3.359375 -4.765625 C 2.421875 -6.359375 1.953125 -8.222656 1.953125 -10.359375 C 1.953125 -12.003906 2.234375 -13.484375 2.796875 -14.796875 C 3.367188 -16.117188 4.15625 -17.242188 5.15625 -18.171875 C 6.15625 -19.109375 7.3125 -19.828125 8.625 -20.328125 C 9.945312 -20.835938 11.359375 -21.09375 12.859375 -21.09375 C 14.222656 -21.09375 15.53125 -20.90625 16.78125 -20.53125 C 18.03125 -20.164062 19.28125 -19.578125 20.53125 -18.765625 L 19.578125 -16.953125 C 18.484375 -17.648438 17.390625 -18.160156 16.296875 -18.484375 C 15.210938 -18.816406 14.085938 -18.984375 12.921875 -18.984375 C 11.296875 -18.984375 9.835938 -18.628906 8.546875 -17.921875 C 7.265625 -17.222656 6.242188 -16.226562 5.484375 -14.9375 C 4.734375 -13.65625 4.359375 -12.128906 4.359375 -10.359375 C 4.359375 -8.554688 4.722656 -7.015625 5.453125 -5.734375 C 6.191406 -4.460938 7.191406 -3.492188 8.453125 -2.828125 C 9.710938 -2.171875 11.144531 -1.84375 12.75 -1.84375 C 14.03125 -1.84375 15.140625 -1.988281 16.078125 -2.28125 C 17.023438 -2.582031 17.960938 -2.988281 18.890625 -3.5 L 18.890625 -8.640625 Z M 15.625 -8.640625 "/></g></g><g style="fill:#898792;fill-opacity:1;"><g transform="translate(203.52791, 55.650992)"><path style="stroke:none" d="M 10.984375 0.265625 C 9.203125 0.265625 7.65625 -0.0820312 6.34375 -0.78125 C 5.039062 -1.488281 4.03125 -2.503906 3.3125 -3.828125 C 2.601562 -5.160156 2.25 -6.734375 2.25 -8.546875 L 2.25 -20.796875 L 4.578125 -20.796875 L 4.578125 -8.609375 C 4.578125 -6.453125 5.148438 -4.78125 6.296875 -3.59375 C 7.441406 -2.40625 9.003906 -1.8125 10.984375 -1.8125 C 12.984375 -1.8125 14.554688 -2.40625 15.703125 -3.59375 C 16.859375 -4.78125 17.4375 -6.453125 17.4375 -8.609375 L 17.4375 -20.796875 L 19.71875 -20.796875 L 19.71875 -8.546875 C 19.71875 -6.734375 19.359375 -5.160156 18.640625 -3.828125 C 17.929688 -2.503906 16.925781 -1.488281 15.625 -0.78125 C 14.332031 -0.0820312 12.785156 0.265625 10.984375 0.265625 Z M 10.984375 0.265625 "/></g></g><g style="fill:#898792;fill-opacity:1;"><g transform="translate(224.403707, 55.650992)"><path style="stroke:none" d="M 19.609375 0 L 16.6875 0 L 10.84375 -7.578125 L 5.203125 -7.578125 L 5.203125 0 L 2.90625 0 L 2.90625 -20.796875 L 10.953125 -20.796875 C 13.671875 -20.796875 15.765625 -20.21875 17.234375 -19.0625 C 18.710938 -17.914062 19.453125 -16.285156 19.453125 -14.171875 C 19.453125 -12.421875 18.945312 -11 17.9375 -9.90625 C 16.925781 -8.820312 15.484375 -8.113281 13.609375 -7.78125 Z M 10.90625 -18.75 L 5.203125 -18.75 L 5.203125 -9.625 L 10.875 -9.625 C 12.914062 -9.625 14.472656 -9.984375 15.546875 -10.703125 C 16.628906 -11.429688 17.171875 -12.578125 17.171875 -14.140625 C 17.171875 -15.679688 16.628906 -16.832031 15.546875 -17.59375 C 14.472656 -18.363281 12.925781 -18.75 10.90625 -18.75 Z M 10.90625 -18.75 "/></g></g><g style="fill:#898792;fill-opacity:1;"><g transform="translate(244.21046, 55.650992)"><path style="stroke:none" d="M 12.71875 0.296875 C 11.164062 0.296875 9.734375 0.0351562 8.421875 -0.484375 C 7.109375 -1.015625 5.96875 -1.757812 5 -2.71875 C 4.039062 -3.675781 3.289062 -4.804688 2.75 -6.109375 C 2.21875 -7.421875 1.953125 -8.847656 1.953125 -10.390625 C 1.953125 -11.941406 2.21875 -13.367188 2.75 -14.671875 C 3.289062 -15.984375 4.046875 -17.117188 5.015625 -18.078125 C 5.984375 -19.035156 7.117188 -19.773438 8.421875 -20.296875 C 9.734375 -20.828125 11.175781 -21.09375 12.75 -21.09375 C 14.3125 -21.09375 15.742188 -20.828125 17.046875 -20.296875 C 18.359375 -19.773438 19.5 -19.035156 20.46875 -18.078125 C 21.4375 -17.117188 22.1875 -15.984375 22.71875 -14.671875 C 23.257812 -13.367188 23.53125 -11.941406 23.53125 -10.390625 C 23.53125 -8.847656 23.257812 -7.421875 22.71875 -6.109375 C 22.1875 -4.804688 21.4375 -3.675781 20.46875 -2.71875 C 19.5 -1.757812 18.351562 -1.015625 17.03125 -0.484375 C 15.71875 0.0351562 14.28125 0.296875 12.71875 0.296875 Z M 12.75 -1.84375 C 14.363281 -1.84375 15.800781 -2.203125 17.0625 -2.921875 C 18.320312 -3.648438 19.304688 -4.65625 20.015625 -5.9375 C 20.734375 -7.226562 21.09375 -8.710938 21.09375 -10.390625 C 21.09375 -12.097656 20.734375 -13.59375 20.015625 -14.875 C 19.304688 -16.164062 18.320312 -17.171875 17.0625 -17.890625 C 15.800781 -18.617188 14.363281 -18.984375 12.75 -18.984375 C 11.125 -18.984375 9.679688 -18.617188 8.421875 -17.890625 C 7.160156 -17.171875 6.171875 -16.164062 5.453125 -14.875 C 4.742188 -13.59375 4.390625 -12.097656 4.390625 -10.390625 C 4.390625 -8.710938 4.742188 -7.226562 5.453125 -5.9375 C 6.171875 -4.65625 7.160156 -3.648438 8.421875 -2.921875 C 9.679688 -2.203125 11.125 -1.84375 12.75 -1.84375 Z M 12.75 -1.84375 "/></g></g><g style="fill:#898792;fill-opacity:1;"><g transform="translate(59.117458, 24.857424)"><path style="stroke:none" d="M 12.328125 -23.3125 C 14.484375 -23.3125 16.335938 -22.972656 17.890625 -22.296875 C 19.441406 -21.617188 20.632812 -20.648438 21.46875 -19.390625 C 22.300781 -18.140625 22.71875 -16.640625 22.71875 -14.890625 C 22.71875 -13.140625 22.296875 -11.625 21.453125 -10.34375 C 20.609375 -9.0625 19.410156 -8.078125 17.859375 -7.390625 C 16.304688 -6.703125 14.453125 -6.359375 12.296875 -6.359375 L 8.265625 -6.359375 L 8.265625 0 L 2.53125 0 L 2.53125 -23.3125 Z M 8.265625 -11.03125 L 12.15625 -11.03125 C 13.664062 -11.03125 14.84375 -11.34375 15.6875 -11.96875 C 16.53125 -12.601562 16.953125 -13.554688 16.953125 -14.828125 C 16.953125 -16.066406 16.53125 -17 15.6875 -17.625 C 14.84375 -18.25 13.664062 -18.5625 12.15625 -18.5625 L 8.265625 -18.5625 Z M 8.265625 -11.03125 "/></g></g><g style="fill:#898792;fill-opacity:1;"><g transform="translate(77.965034, 24.857424)"><path style="stroke:none" d="M 26.515625 0 L 20.484375 0 L 18.953125 -3.828125 L 7.765625 -3.828125 L 6.234375 0 L 0.296875 0 L 9.953125 -23.3125 L 16.828125 -23.3125 Z M 13.390625 -17.75 L 9.5625 -8.234375 L 17.1875 -8.234375 Z M 13.390625 -17.75 "/></g></g><g style="fill:#898792;fill-opacity:1;"><g transform="translate(101.574913, 24.857424)"><path style="stroke:none" d="M 16.5625 -8.46875 L 16.5625 -12.6875 L 24.3125 -12.6875 L 24.28125 -2.671875 C 22.925781 -1.773438 21.390625 -1.035156 19.671875 -0.453125 C 17.953125 0.117188 16.171875 0.40625 14.328125 0.40625 C 12.484375 0.40625 10.785156 0.101562 9.234375 -0.5 C 7.691406 -1.101562 6.347656 -1.941406 5.203125 -3.015625 C 4.066406 -4.085938 3.1875 -5.359375 2.5625 -6.828125 C 1.9375 -8.296875 1.625 -9.894531 1.625 -11.625 C 1.625 -13.53125 1.972656 -15.234375 2.671875 -16.734375 C 3.378906 -18.234375 4.335938 -19.5 5.546875 -20.53125 C 6.753906 -21.570312 8.132812 -22.363281 9.6875 -22.90625 C 11.25 -23.445312 12.894531 -23.71875 14.625 -23.71875 C 16.09375 -23.71875 17.566406 -23.515625 19.046875 -23.109375 C 20.535156 -22.710938 21.984375 -22.09375 23.390625 -21.25 L 21.15625 -16.796875 C 20.082031 -17.453125 18.992188 -17.941406 17.890625 -18.265625 C 16.796875 -18.585938 15.726562 -18.75 14.6875 -18.75 C 13.351562 -18.75 12.140625 -18.476562 11.046875 -17.9375 C 9.960938 -17.394531 9.097656 -16.59375 8.453125 -15.53125 C 7.816406 -14.476562 7.5 -13.175781 7.5 -11.625 C 7.5 -9.445312 8.140625 -7.71875 9.421875 -6.4375 C 10.710938 -5.164062 12.425781 -4.53125 14.5625 -4.53125 C 15.6875 -4.53125 16.550781 -4.625 17.15625 -4.8125 C 17.757812 -5 18.328125 -5.238281 18.859375 -5.53125 L 18.859375 -8.46875 Z M 16.5625 -8.46875 "/></g></g><g style="fill:#898792;fill-opacity:1;"><g transform="translate(125.917636, 24.857424)"><path style="stroke:none" d="M 26.515625 0 L 20.484375 0 L 18.953125 -3.828125 L 7.765625 -3.828125 L 6.234375 0 L 0.296875 0 L 9.953125 -23.3125 L 16.828125 -23.3125 Z M 13.390625 -17.75 L 9.5625 -8.234375 L 17.1875 -8.234375 Z M 13.390625 -17.75 "/></g></g><g style="fill:#898792;fill-opacity:1;"><g transform="translate(151.159497, 24.857424)"><path style="stroke:none" d="M 22.21875 -23.3125 L 28.015625 -23.3125 L 29.34375 0 L 23.625 0 L 22.890625 -13.265625 L 16.921875 0 L 14.03125 0 L 8.03125 -13.265625 L 7.296875 0 L 1.53125 0 L 2.859375 -23.3125 L 8.734375 -23.3125 L 15.453125 -8.5 Z M 22.21875 -23.3125 "/></g></g><g style="fill:#898792;fill-opacity:1;"><g transform="translate(180.464104, 24.857424)"><path style="stroke:none" d="M 8.15625 -9.6875 L 8.15625 -4.734375 L 21.859375 -4.734375 L 21.859375 0 L 2.53125 0 L 2.53125 -23.3125 L 21.515625 -23.3125 L 21.515625 -18.59375 L 8.15625 -18.59375 L 8.15625 -14.1875 L 19.984375 -14.1875 L 19.984375 -9.6875 Z M 8.15625 -9.6875 "/></g></g><g style="fill:#898792;fill-opacity:1;"><g transform="translate(202.142731, 24.857424)"><path style="stroke:none" d="M 8.265625 0 L 2.53125 0 L 2.53125 -23.3125 L 7.828125 -23.3125 L 19.453125 -9.09375 L 19.453125 -23.3125 L 25.1875 -23.3125 L 25.1875 0 L 20.046875 0 L 8.265625 -14.453125 Z M 8.265625 0 "/></g></g><g style="fill:#898792;fill-opacity:1;"><g transform="translate(228.283718, 24.857424)"><path style="stroke:none" d="M 0.703125 -23.3125 L 21.390625 -23.3125 L 21.390625 -18.421875 L 13.890625 -18.421875 L 13.890625 0 L 8.125 0 L 8.125 -18.421875 L 0.703125 -18.421875 Z M 0.703125 -23.3125 "/></g></g><g style="fill:#898792;fill-opacity:1;"><g transform="translate(247.631103, 24.857424)"><path style="stroke:none" d="M 14.21875 0.40625 C 12.40625 0.40625 10.726562 0.113281 9.1875 -0.46875 C 7.65625 -1.0625 6.320312 -1.894531 5.1875 -2.96875 C 4.0625 -4.050781 3.1875 -5.332031 2.5625 -6.8125 C 1.9375 -8.289062 1.625 -9.90625 1.625 -11.65625 C 1.625 -13.414062 1.9375 -15.023438 2.5625 -16.484375 C 3.1875 -17.953125 4.0625 -19.222656 5.1875 -20.296875 C 6.320312 -21.378906 7.660156 -22.21875 9.203125 -22.8125 C 10.753906 -23.414062 12.4375 -23.71875 14.25 -23.71875 C 16.070312 -23.71875 17.75 -23.421875 19.28125 -22.828125 C 20.820312 -22.242188 22.15625 -21.410156 23.28125 -20.328125 C 24.414062 -19.253906 25.289062 -17.976562 25.90625 -16.5 C 26.53125 -15.03125 26.84375 -13.414062 26.84375 -11.65625 C 26.84375 -9.90625 26.53125 -8.296875 25.90625 -6.828125 C 25.289062 -5.359375 24.414062 -4.085938 23.28125 -3.015625 C 22.15625 -1.941406 20.820312 -1.101562 19.28125 -0.5 C 17.75 0.101562 16.0625 0.40625 14.21875 0.40625 Z M 14.25 -4.59375 C 15.5625 -4.59375 16.710938 -4.882812 17.703125 -5.46875 C 18.691406 -6.0625 19.46875 -6.890625 20.03125 -7.953125 C 20.601562 -9.023438 20.890625 -10.257812 20.890625 -11.65625 C 20.890625 -13.082031 20.601562 -14.320312 20.03125 -15.375 C 19.46875 -16.425781 18.691406 -17.242188 17.703125 -17.828125 C 16.710938 -18.421875 15.5625 -18.71875 14.25 -18.71875 C 12.945312 -18.71875 11.796875 -18.421875 10.796875 -17.828125 C 9.796875 -17.242188 9.007812 -16.425781 8.4375 -15.375 C 7.875 -14.320312 7.59375 -13.082031 7.59375 -11.65625 C 7.59375 -10.257812 7.875 -9.023438 8.4375 -7.953125 C 9.007812 -6.890625 9.796875 -6.0625 10.796875 -5.46875 C 11.796875 -4.882812 12.945312 -4.59375 14.25 -4.59375 Z M 14.25 -4.59375 "/></g></g></g></svg>