<svg width="16" height="16" viewBox="0 0 16 16" fill="none" xmlns="http://www.w3.org/2000/svg">
    <path fill-rule="evenodd" clip-rule="evenodd" d="M12.9426 6.35255C12.2251 5.63504 11.112 5.49632 10.2403 6.01578L8 7.35088L5.75968 6.01578C4.88802 5.49632 3.77493 5.63504 3.05743 6.35255L1.95908 5.2542C3.17936 4.03392 5.0724 3.798 6.55486 4.68145L8 5.54267L9.44514 4.68145C10.9276 3.798 12.8206 4.03392 14.0409 5.2542L12.9426 6.35255Z" fill="black"/>
    <path fill-rule="evenodd" clip-rule="evenodd" d="M3.05743 9.64761C3.77493 10.3651 4.88802 10.5038 5.75968 9.98438L8 8.64929L10.2403 9.98438C11.112 10.5038 12.2251 10.3651 12.9426 9.64761L14.0409 10.746C12.8206 11.9662 10.9276 12.2022 9.44514 11.3187L8 10.4575L6.55486 11.3187C5.0724 12.2022 3.17936 11.9662 1.95908 10.746L3.05743 9.64761Z" fill="black"/>
    <path fill-rule="evenodd" clip-rule="evenodd" d="M13.4917 6.90165L9.09835 2.50825C8.49175 1.90165 7.50825 1.90165 6.90165 2.50825L2.50825 6.90165C1.90165 7.50825 1.90165 8.49175 2.50825 9.09835L6.90165 13.4917C7.50825 14.0984 8.49175 14.0984 9.09835 13.4917L13.4917 9.09835C14.0984 8.49175 14.0984 7.50825 13.4917 6.90165ZM10.1967 1.4099C8.9835 0.196699 7.0165 0.196699 5.8033 1.4099L1.4099 5.8033C0.196699 7.0165 0.196699 8.9835 1.4099 10.1967L5.8033 14.5901C7.0165 15.8033 8.9835 15.8033 10.1967 14.5901L14.5901 10.1967C15.8033 8.9835 15.8033 7.0165 14.5901 5.8033L10.1967 1.4099Z" fill="black"/>
</svg>
